# xmcd
#
# Track frame offsets: 
#        150
#        13571
#        32045
#        50737
#        70427
#        86124
#        99898
#        115642
#        138057
#        152845
#        172384
#        193312
#        207380
#        224888
#        242936
#        261114
#        288234
#        304151
#
# Disc length: 4303 seconds
#
# Revision: 2
# Processed by: cddbd v1.5.1PL0 Copyright (c) Steve Scherf et al.
# Submitted via: ExactAudioCopy v0.95a4
#
DISCID=1610cd12
DTITLE=Various Greek Artists - Μόνο επιτυχίες 2001
DYEAR=2001
DGENRE=Greek
TTITLE0=Antique - I would Die For You
TTITLE1=Νατάσσα Θεοδωρίδου/Καταζητειται
TTITLE2=Τριαντάφυλλος/Αφήστε μύνημα
TTITLE3=Νίκος Κούρκουλης/Πίστεψέ με
TTITLE4=Λάμπης Λιβιεράτος/Επιμένει
TTITLE5=Αντώνης Ρέμος/Και θα τα πιώ
TTITLE6=’ννα Βίσση/Αγαπούλα μου
TTITLE7=Καίτη Γαρμπή/’σπρο ή μαύρο
TTITLE8=Ανδρέας Στάμος/Φευγουνε τα Καλοκαίρια
TTITLE9=Χρήστος Πάζης/Και δεν μπορώ να φύγω
TTITLE10=Αντώνης Βαρδής/Δεν ακούς που σου φωνάζω
TTITLE11=Νεκτάριοσ Σφυράκης/Ταξιδάκι μου
TTITLE12=Μαρία-Λοϊζα βασιοπούλου/Αγάπησέ με
TTITLE13=Θάνος Καλλίρης/Αυτός ο χειμώνας
TTITLE14=Ζιγκ Ζαγκ/Ωραία
TTITLE15=Γιώργος Αλκαίος/Και να μπορούσα
TTITLE16=Φίλλιπος Κεντάς/Φωτιά
TTITLE17=Γιάννης Τάσσιος/Δύσκολα ή εύκολα
EXTD=
EXTT0=
EXTT1=
EXTT2=
EXTT3=
EXTT4=
EXTT5=
EXTT6=
EXTT7=
EXTT8=
EXTT9=
EXTT10=
EXTT11=
EXTT12=
EXTT13=
EXTT14=
EXTT15=
EXTT16=
EXTT17=
PLAYORDER=
